<svg width="117" height="53" viewBox="0 0 117 53" fill="none" xmlns="http://www.w3.org/2000/svg">
  <path fill="#fff" d="M7.02 9.893h3.031v11.368H7.02zM26.723 9.893h3.031v11.368h-3.031zM11.567 11.409h13.641v8.336H11.567zM16.942 19.745h2.766v33.193h-2.766zM12.035 23.421h2.766v24.895h-2.766zM21.85 23.421h2.766v24.895H21.85zM7.128 24.112h2.766v19.709H7.128zM27.102 24.112h2.766v19.709h-2.766z"/>
  <circle cx="2.939" cy="8.248" r="2.939" fill="#fff"/>
  <circle cx="33.712" cy="8.248" r="2.939" fill="#fff"/>
  <path fill="#fff" d="M3.458 5.309h30.081v2.766H3.458zM7.777.042h21.22v3.031H7.777zM44.766 1.634v16.339h3.853V1.633h-3.853ZM51.394 5.73v12.243h3.73v-6.755c0-.976.196-1.683.586-2.146.39-.464.927-.683 1.585-.683.585 0 1.024.17 1.292.512.269.341.415.902.415 1.658v7.438h3.731V9.974c0-1.512-.366-2.658-1.097-3.439-.732-.78-1.707-1.17-2.951-1.17-.902 0-1.683.22-2.317.658-.634.44-1.097 1.098-1.39 1.951h-.073l-.073-2.219-3.438-.024ZM66.975 17.558c.78.512 1.659.756 2.659.756 1.097 0 1.95-.244 2.56-.756a4.326 4.326 0 0 0 1.317-1.853h.073l.049 2.268h3.463V.732h-3.731v7.047h-.074A3.316 3.316 0 0 0 72.072 6c-.585-.439-1.341-.658-2.292-.658-1.024 0-1.927.268-2.707.804-.78.537-1.39 1.293-1.829 2.293-.439 1-.658 2.194-.658 3.56 0 1.317.219 2.439.634 3.39.414.95 1 1.682 1.78 2.194l-.025-.024Zm5.731-2.95c-.463.585-1.073.877-1.829.877s-1.365-.317-1.829-.95c-.463-.635-.683-1.513-.683-2.659s.22-2.048.659-2.682c.439-.634 1.048-.951 1.829-.951.707 0 1.292.292 1.78.853.488.56.732 1.488.732 2.78 0 1.244-.244 2.146-.708 2.731h.05ZM79.932 3.536c.39.39.902.585 1.512.585s1.122-.195 1.512-.585c.39-.39.585-.878.585-1.463 0-.61-.195-1.098-.585-1.488-.39-.39-.903-.585-1.537-.585-.634 0-1.146.195-1.536.585-.39.39-.585.903-.585 1.512 0 .585.195 1.073.585 1.463l.049-.024Zm-.39 2.244V18.02h3.73V5.78h-3.73ZM98.28 15.315c-.269.146-.537.219-.805.219-.244 0-.44-.073-.561-.244-.122-.17-.195-.439-.195-.829v-4.194c0-3.268-1.78-4.902-5.365-4.902-1.585 0-2.83.317-3.707.951-.878.634-1.439 1.512-1.683 2.634l3.414.902c.269-1.244.927-1.853 1.976-1.853 1.097 0 1.658.682 1.658 2.073v.39l-2.366.366c-1.853.268-3.243.707-4.145 1.292-.903.585-1.366 1.463-1.366 2.634 0 1.097.39 1.95 1.17 2.585.781.634 1.756.95 2.951.95 1.049 0 1.903-.219 2.585-.682.683-.463 1.147-1.049 1.415-1.78h.073c.049.731.341 1.316.878 1.731.536.415 1.244.634 2.121.634.78 0 1.415-.146 1.927-.439l.024-2.438Zm-5.951-.244c-.463.512-1.073.78-1.829.78-.512 0-.927-.122-1.22-.366-.292-.244-.438-.61-.438-1.073 0-.536.22-.926.658-1.17.44-.244 1.073-.44 1.927-.561l1.585-.244v.366c0 1-.244 1.756-.707 2.268h.024ZM38.325 36.485c.927.804 2.317 1.194 4.17 1.194 2.073 0 3.61-.512 4.61-1.536 1-1.024 1.487-2.585 1.487-4.706V21.024h-3.853v10.461c0 1.025-.195 1.805-.56 2.317-.367.512-.928.78-1.684.78-1.194 0-1.95-.78-2.267-2.316l-3.658 1.17c.22 1.268.78 2.293 1.707 3.097l.048-.048ZM52.102 36.558c.683.756 1.658 1.146 2.902 1.146 1.878 0 3.121-.854 3.731-2.585h.049l.049 2.243h3.487V25.121h-3.731v6.51c0 1.05-.195 1.83-.561 2.342-.366.512-.878.78-1.536.78-.586 0-1.025-.17-1.293-.536s-.414-.927-.414-1.683v-7.365h-3.731v8.121c0 1.463.34 2.585 1.024 3.34l.024-.072ZM65.613 36.728c.951.634 2.244.951 3.878.951 1.731 0 3.072-.365 4.023-1.097.952-.732 1.415-1.731 1.415-3 0-.828-.22-1.487-.634-1.975-.415-.487-.951-.853-1.61-1.097-.658-.244-1.536-.488-2.633-.732-.854-.17-1.464-.365-1.805-.56-.341-.196-.512-.488-.512-.903 0-.366.122-.658.39-.878.268-.22.659-.317 1.17-.317 1.098 0 1.78.537 2.05 1.634l3.243-.878c-.22-1-.78-1.78-1.659-2.34-.878-.562-2.073-.83-3.56-.83-1.732 0-3.024.366-3.902 1.073-.878.707-1.317 1.634-1.317 2.78 0 1.098.366 1.927 1.122 2.463.756.537 1.878.976 3.39 1.293.707.17 1.219.317 1.56.414.342.098.586.244.756.415.171.17.244.39.244.683 0 .414-.17.756-.512 1-.341.243-.78.365-1.341.365-1.195 0-1.927-.585-2.195-1.731l-3.292.829c.146.975.683 1.78 1.634 2.414l.097.024ZM84.37 34.46c-.464.293-1 .44-1.586.44-.56 0-.951-.171-1.195-.513-.244-.341-.366-.877-.366-1.61v-5.023h2.707v-2.682h-2.707v-4.024l-3.73.707v3.317H75.37v2.682h2.121v5.536c0 1.488.342 2.585 1.024 3.268.683.683 1.732 1.024 3.17 1.024 1.098 0 1.976-.195 2.659-.56l.024-2.561ZM86.323 22.901c.39.39.902.586 1.512.586s1.121-.195 1.512-.585c.39-.39.585-.878.585-1.464 0-.61-.195-1.097-.585-1.487-.39-.39-.903-.585-1.537-.585-.634 0-1.146.195-1.536.585-.39.39-.585.902-.585 1.512 0 .585.195 1.073.585 1.463l.049-.024Zm-.39 2.244v12.242h3.73V25.145h-3.73ZM93.257 35.948c1.073 1.17 2.585 1.756 4.56 1.756 1.683 0 3.024-.39 4.024-1.17 1-.781 1.585-1.78 1.78-3.024l-3.511-.805c-.122.707-.39 1.243-.78 1.61-.39.365-.878.536-1.464.536-.756 0-1.365-.293-1.804-.903-.44-.61-.659-1.511-.659-2.706s.22-2.098.659-2.707c.439-.61 1.024-.927 1.78-.927.61 0 1.097.195 1.463.585.366.39.61.927.732 1.634l3.487-.878c-.195-1.243-.805-2.243-1.805-3.024-.999-.78-2.316-1.17-3.95-1.17-1.268 0-2.366.268-3.317.805a5.465 5.465 0 0 0-2.195 2.268c-.512.975-.755 2.121-.755 3.414 0 1.975.536 3.56 1.609 4.73l.146-.024ZM117 32.07v-.804c0-2.146-.512-3.78-1.561-4.877-1.048-1.098-2.511-1.659-4.413-1.659-1.244 0-2.342.293-3.293.854a5.646 5.646 0 0 0-2.194 2.341c-.512 1-.781 2.122-.781 3.365 0 1.244.244 2.341.732 3.293a5.29 5.29 0 0 0 2.146 2.243c.951.536 2.097.805 3.438.805 1.488 0 2.707-.293 3.658-.903.951-.61 1.561-1.365 1.854-2.267l-3.049-1.22c-.219.586-.536 1.049-.926 1.366-.391.317-.903.488-1.537.488-.804 0-1.438-.293-1.902-.878-.463-.586-.731-1.317-.805-2.195l8.633.049Zm-7.706-4.12c.463-.488 1.049-.732 1.756-.732.756 0 1.341.244 1.756.731.414.488.658 1.147.731 1.976h-5.048c.122-.854.415-1.512.878-2l-.073.024ZM46.856 50.966h1.707l-1.366-2.49c.412-.161.723-.402.934-.733.21-.332.311-.754.311-1.266 0-.763-.24-1.325-.723-1.687-.482-.361-1.215-.542-2.189-.542h-2.51v6.728h1.587v-2.24h.743c.15 0 .27 0 .361-.01l1.145 2.24Zm-1.386-3.424h-.863v-2.099h.863c.462 0 .803.08 1.014.241.211.16.322.432.322.803 0 .372-.11.643-.322.804-.21.16-.552.24-1.014.24v.01ZM55.083 49.68h-3.194v-1.526h2.923V46.92H51.89v-1.396h3.112v-1.285h-4.699v6.728h4.78V49.68ZM61.507 44.8c-.512-.371-1.275-.552-2.29-.552h-2.269v6.728h1.587v-2.119h.683c1.024 0 1.787-.18 2.3-.552.511-.372.762-.954.762-1.758 0-.783-.26-1.355-.773-1.727v-.02Zm-1.215 2.601c-.25.16-.622.241-1.125.241h-.642v-2.129h.642c.513 0 .884.08 1.125.231.241.15.362.422.362.814 0 .401-.12.682-.372.843h.01ZM65.338 50.675c.482.29 1.044.441 1.697.441s1.225-.15 1.707-.441a2.896 2.896 0 0 0 1.115-1.235c.26-.533.391-1.145.391-1.838 0-.693-.13-1.305-.391-1.838a2.895 2.895 0 0 0-1.115-1.235c-.482-.291-1.054-.432-1.707-.432s-1.215.151-1.697.442a2.812 2.812 0 0 0-1.105 1.235c-.25.532-.381 1.145-.381 1.838 0 .693.13 1.305.381 1.837.251.533.623.944 1.105 1.236v-.01Zm2.852-1.436c-.281.381-.673.572-1.165.572s-.874-.19-1.145-.582c-.27-.392-.401-.934-.401-1.627s.13-1.235.401-1.617c.271-.381.653-.572 1.145-.572s.873.19 1.155.582c.28.392.421.934.421 1.627s-.14 1.235-.421 1.617h.01ZM75.918 50.966h1.707l-1.365-2.49c.411-.161.722-.402.933-.733.211-.332.312-.754.312-1.266 0-.763-.241-1.325-.723-1.687-.482-.361-1.215-.542-2.19-.542h-2.51v6.728h1.587v-2.24h.743c.15 0 .271 0 .361-.01l1.145 2.24Zm-1.386-3.424h-.863v-2.099h.863c.462 0 .804.08 1.015.241.21.16.32.432.32.803 0 .372-.11.643-.32.804-.211.16-.553.24-1.015.24v.01ZM84.437 45.523v-1.285h-5.523v1.285h1.968v5.443h1.587v-5.443h1.968ZM93.665 49.68h-3.123c.13-.21.29-.401.492-.572.2-.17.482-.381.833-.633.392-.27.703-.502.934-.702.23-.201.422-.442.582-.723a1.92 1.92 0 0 0 .241-.974c0-.603-.21-1.085-.632-1.446-.422-.362-1.004-.543-1.747-.543-.683 0-1.236.171-1.647.512a2.139 2.139 0 0 0-.753 1.346l1.446.392c.07-.312.18-.543.331-.703.15-.16.351-.241.603-.241.26 0 .461.07.602.22.14.151.21.342.21.573 0 .21-.06.402-.18.582-.12.181-.261.342-.432.482-.17.141-.411.322-.723.543-.401.28-.733.542-.994.773-.26.23-.482.512-.662.843-.181.332-.272.713-.272 1.145v.412h4.9l-.01-1.286ZM95.919 50.193c.451.612 1.114.913 1.998.913.873 0 1.536-.3 1.988-.913.452-.613.683-1.476.683-2.591 0-1.105-.231-1.968-.683-2.58-.452-.613-1.115-.925-1.988-.925-.884 0-1.557.312-2.008.924-.452.613-.683 1.476-.683 2.59 0 1.116.22 1.98.672 2.592l.02-.01Zm2.801-.874c-.17.361-.442.542-.813.542-.382 0-.663-.18-.834-.542-.17-.361-.26-.924-.26-1.697s.09-1.346.26-1.707c.171-.362.452-.542.834-.542.371 0 .642.18.813.542.17.361.251.934.251 1.707s-.09 1.346-.26 1.707l.01-.01ZM107.063 49.68h-3.123a2.41 2.41 0 0 1 .492-.572 13.2 13.2 0 0 1 .834-.633c.391-.27.703-.502.934-.702.23-.201.421-.442.582-.723.161-.282.241-.603.241-.974 0-.603-.211-1.085-.633-1.446-.421-.362-1.004-.543-1.747-.543-.683 0-1.235.171-1.647.512a2.145 2.145 0 0 0-.753 1.346l1.446.392c.07-.312.181-.543.332-.703.15-.16.351-.241.602-.241.261 0 .462.07.603.22.14.151.21.342.21.573 0 .21-.06.402-.18.582a2.19 2.19 0 0 1-.432.482c-.171.141-.412.322-.723.543a11.17 11.17 0 0 0-.994.773c-.261.23-.482.512-.663.843a2.35 2.35 0 0 0-.271 1.145v.412h4.9l-.01-1.286ZM109.334 50.614c.422.332 1.015.502 1.778.502.793 0 1.416-.17 1.877-.522.462-.351.693-.843.693-1.486 0-.512-.15-.894-.441-1.135a1.815 1.815 0 0 0-.964-.421v-.03c.331-.05.622-.191.873-.412.251-.221.382-.572.382-1.054 0-.593-.221-1.065-.663-1.406-.442-.342-1.034-.512-1.767-.512-.703 0-1.255.16-1.657.482a2.003 2.003 0 0 0-.743 1.275l1.446.391c.07-.29.181-.502.331-.642.151-.14.352-.211.613-.211.271 0 .482.07.632.21.151.141.221.332.221.583 0 .542-.381.814-1.155.814h-.321v1.144h.442c.371 0 .653.06.833.191.181.13.271.342.271.643 0 .27-.09.482-.261.632-.17.15-.401.231-.692.231-.573 0-.914-.311-1.025-.923l-1.486.361c.081.572.332 1.024.753 1.355l.03-.06Z"/>
</svg>